<svg xmlns="http://www.w3.org/2000/svg" width="128" height="128"><path d="M0 0 C0.79899719 0.00202423 1.59799438 0.00404846 2.42120361 0.00613403 C3.67722382 0.00350555 3.67722382 0.00350555 4.95861816 0.00082397 C7.74043825 -0.00359545 10.52219532 -0.00065624 13.30401611 0.00271606 C15.22833264 0.00204305 17.15264909 0.00107305 19.07696533 -0.00018311 C23.11554776 -0.0016602 27.15410812 0.00049485 31.19268799 0.00515747 C36.38170122 0.01085476 41.57066274 0.00757582 46.75967407 0.00158501 C50.73492831 -0.00202029 54.7101702 -0.00088216 58.6854248 0.0017128 C60.59928392 0.00238215 62.51314413 0.00155335 64.42700195 -0.00076675 C67.09697461 -0.00329277 69.76686232 0.00054658 72.43682861 0.00613403 C73.23582581 0.0041098 74.034823 0.00208557 74.85803223 0 C80.31475362 0.02126607 80.31475362 0.02126607 81.42901611 1.13552856 C81.52946664 3.80802924 81.5651826 6.45471438 81.55841064 9.12771606 C81.56103912 10.38373627 81.56103912 10.38373627 81.5637207 11.66513062 C81.56814013 14.4469507 81.56520092 17.22870777 81.56182861 20.01052856 C81.56250163 21.9348451 81.56347163 23.85916154 81.56472778 25.78347778 C81.56620488 29.82206021 81.56404983 33.86062057 81.55938721 37.89920044 C81.55368991 43.08821367 81.55696886 48.27717519 81.56295967 53.46618652 C81.56656497 57.44144077 81.56542684 61.41668265 81.56283188 65.39193726 C81.56216252 67.30579637 81.56299133 69.21965658 81.56531143 71.1335144 C81.56783745 73.80348707 81.56399809 76.47337477 81.55841064 79.14334106 C81.56043488 79.94233826 81.56245911 80.74133545 81.56454468 81.56454468 C81.54327861 87.02126607 81.54327861 87.02126607 80.42901611 88.13552856 C77.42901611 88.26052856 77.42901611 88.26052856 74.42901611 88.13552856 C72.54691914 86.25343159 73.25464687 83.01161976 73.22369385 80.50442505 C73.21379425 79.81177551 73.20389465 79.11912598 73.19369507 78.40548706 C73.16199581 76.10590077 73.1372896 73.80629379 73.11260986 71.50662231 C73.09204759 69.91620839 73.07105132 68.32580002 73.04963684 66.73539734 C72.99434102 62.54163094 72.94496502 58.34781462 72.89678955 54.15396118 C72.8466292 49.87758928 72.79091467 45.60129022 72.73565674 41.32498169 C72.62798337 32.92855883 72.52655895 24.53207519 72.42901611 16.13552856 C71.5403183 17.03755005 70.65162048 17.93957153 69.73599243 18.868927 C61.3653888 27.36107697 52.9790501 35.83740318 44.57698631 44.2984314 C40.25772797 48.64902293 35.94423585 53.0050275 31.64337158 57.37380981 C27.49381188 61.58848609 23.32983279 65.78840294 19.15538406 69.97842407 C17.56409351 71.5808144 15.97809999 73.18848281 14.3975029 74.80142212 C12.18524326 77.05713758 9.95501219 79.29347041 7.71954346 81.52615356 C7.06786194 82.19940674 6.41618042 82.87265991 5.74475098 83.5663147 C1.22664735 88.02373235 1.22664735 88.02373235 -2.96414185 88.6111145 C-5.57098389 88.13552856 -5.57098389 88.13552856 -6.57098389 87.13552856 C-7.1218991 84.11578212 -7.18200385 82.03540774 -5.41680908 79.43571854 C-3.66702117 77.49104152 -1.84135321 75.6645168 0.03839111 73.84500122 C0.74064819 73.14186798 1.44290527 72.43873474 2.16644287 71.71429443 C4.490028 69.39488774 6.83413701 67.09745129 9.17901611 64.79959106 C10.7945777 63.19522049 12.4088192 61.58951962 14.02178955 59.98254395 C18.269912 55.75732631 22.53574372 51.55043538 26.80548096 47.34707642 C31.15955623 43.05438607 35.4966881 38.74465252 39.83526611 34.43630981 C48.34999466 25.98592338 56.88352406 17.554796 65.42901611 9.13552856 C64.09810692 9.12006737 64.09810692 9.12006737 62.74031067 9.10429382 C54.39650041 9.00649432 46.05276397 8.90400541 37.70907688 8.79618931 C33.41905401 8.7409212 29.12902438 8.68749513 24.83892822 8.63821411 C20.70216176 8.59062771 16.56548075 8.53828725 12.42881584 8.48258781 C10.84711765 8.46213823 9.26539599 8.44342954 7.68365669 8.42645454 C5.47572433 8.40246787 3.26795491 8.37240601 1.06011963 8.34085083 C-0.82851051 8.31753441 -0.82851051 8.31753441 -2.7552948 8.29374695 C-5.57098389 8.13552856 -5.57098389 8.13552856 -6.57098389 7.13552856 C-6.69598389 4.13552856 -6.69598389 4.13552856 -6.57098389 1.13552856 C-4.78490332 -0.650552 -2.37834854 0.00926896 0 0 Z " fill="#000000" transform="translate(26.57098388671875,19.864471435546875)"></path></svg>