<svg xmlns="http://www.w3.org/2000/svg" width="46" height="46" viewBox="0 0 46 46" fill="none"><rect width="46" height="46" rx="10" fill="#EBF3FF"></rect><path d="M11.0133 21.96V27.9466C11.0133 33.9333 13.4133 36.3333 19.4 36.3333H26.5867C32.5733 36.3333 34.9733 33.9333 34.9733 27.9466V21.96" stroke="#016DFF" stroke-width="1.5" stroke-linecap="round" stroke-linejoin="round"></path><path d="M23 23.0001C25.44 23.0001 27.24 21.0134 27 18.5734L26.12 9.66675H19.8933L19 18.5734C18.76 21.0134 20.56 23.0001 23 23.0001Z" stroke="#016DFF" stroke-width="1.5" stroke-linecap="round" stroke-linejoin="round"></path><path d="M31.4133 23.0001C34.1067 23.0001 36.08 20.8134 35.8133 18.1334L35.44 14.4667C34.96 11.0001 33.6267 9.66675 30.1333 9.66675H26.0667L27 19.0134C27.2267 21.2134 29.2133 23.0001 31.4133 23.0001Z" stroke="#016DFF" stroke-width="1.5" stroke-linecap="round" stroke-linejoin="round"></path><path d="M14.52 23.0001C16.72 23.0001 18.7067 21.2134 18.92 19.0134L19.2133 16.0667L19.8533 9.66675H15.7867C12.2933 9.66675 10.96 11.0001 10.48 14.4667L10.12 18.1334C9.85333 20.8134 11.8267 23.0001 14.52 23.0001Z" stroke="#016DFF" stroke-width="1.5" stroke-linecap="round" stroke-linejoin="round"></path><path d="M23 29.6667C20.7733 29.6667 19.6667 30.7734 19.6667 33.0001V36.3334H26.3333V33.0001C26.3333 30.7734 25.2267 29.6667 23 29.6667Z" stroke="#016DFF" stroke-width="1.5" stroke-linecap="round" stroke-linejoin="round"></path></svg>