<svg xmlns="http://www.w3.org/2000/svg" width="46" height="46" viewBox="0 0 46 46" fill="none"><rect width="46" height="46" rx="10" fill="#EBF3FF"></rect><g clip-path="url(#clip0_2_278)"><path d="M33.6667 29.6667V13.6667C33.6667 12.172 32.4947 11 31 11C29.5053 11 28.3333 12.172 28.3333 13.6667V29.6667L31 32.3333L33.6667 29.6667Z" stroke="#016DFF" stroke-width="1.5" stroke-linecap="round" stroke-linejoin="round"></path><path d="M28.3333 16.3333H33.6667" stroke="#016DFF" stroke-width="1.5" stroke-linecap="round" stroke-linejoin="round"></path><path d="M31 32.3334H13.6667C12.9594 32.3334 12.2811 32.0525 11.781 31.5524C11.281 31.0523 11 30.374 11 29.6667C11 28.9595 11.281 28.2812 11.781 27.7811C12.2811 27.281 12.9594 27.0001 13.6667 27.0001H19C19.7072 27.0001 20.3855 26.7191 20.8856 26.219C21.3857 25.7189 21.6667 25.0407 21.6667 24.3334C21.6667 23.6262 21.3857 22.9479 20.8856 22.4478C20.3855 21.9477 19.7072 21.6667 19 21.6667H15" stroke="#016DFF" stroke-width="1.5" stroke-linecap="round" stroke-linejoin="round"></path></g><defs><clipPath id="clip0_2_278"><rect width="32" height="32" fill="white" transform="translate(7 7)"></rect></clipPath></defs></svg>