<svg xmlns="http://www.w3.org/2000/svg" width="46" height="46" viewBox="0 0 46 46" fill="none"><rect width="46" height="46" rx="10" fill="#EBF3FF"></rect><path d="M30.9733 21.3867V26.72C30.9733 27.0667 30.96 27.4 30.92 27.72C30.6133 31.32 28.4933 33.1066 24.5867 33.1066H24.0533C23.72 33.1066 23.4 33.2667 23.2 33.5333L21.6 35.6667C20.8933 36.6133 19.7467 36.6133 19.04 35.6667L17.44 33.5333C17.2666 33.3067 16.88 33.1066 16.5867 33.1066H16.0533C11.8 33.1066 9.66666 32.0533 9.66666 26.72V21.3867C9.66666 17.48 11.4667 15.36 15.0533 15.0533C15.3733 15.0133 15.7067 15 16.0533 15H24.5867C28.84 15 30.9733 17.1333 30.9733 21.3867Z" stroke="#016DFF" stroke-width="1.5" stroke-miterlimit="10" stroke-linecap="round" stroke-linejoin="round"></path><path d="M36.3067 16.0534V21.3868C36.3067 25.3068 34.5067 27.4134 30.92 27.7201C30.96 27.4001 30.9733 27.0668 30.9733 26.7201V21.3868C30.9733 17.1334 28.84 15.0001 24.5867 15.0001H16.0533C15.7067 15.0001 15.3733 15.0134 15.0533 15.0534C15.36 11.4668 17.48 9.66675 21.3867 9.66675H29.92C34.1733 9.66675 36.3067 11.8001 36.3067 16.0534Z" stroke="#016DFF" stroke-width="1.5" stroke-miterlimit="10" stroke-linecap="round" stroke-linejoin="round"></path><path d="M24.994 24.6667H25.006" stroke="#016DFF" stroke-width="2" stroke-linecap="round" stroke-linejoin="round"></path><path d="M20.3273 24.6667H20.3393" stroke="#016DFF" stroke-width="2" stroke-linecap="round" stroke-linejoin="round"></path><path d="M15.6607 24.6667H15.6727" stroke="#016DFF" stroke-width="2" stroke-linecap="round" stroke-linejoin="round"></path></svg>