<svg xmlns="http://www.w3.org/2000/svg" width="46" height="46" viewBox="0 0 46 46" fill="none"><rect width="46" height="46" rx="10" fill="#EBF3FF"></rect><g clip-path="url(#clip0_2_230)"><path d="M19 27C19 28.0609 19.4214 29.0783 20.1716 29.8284C20.9217 30.5786 21.9391 31 23 31C24.0609 31 25.0783 30.5786 25.8284 29.8284C26.5786 29.0783 27 28.0609 27 27C27 25.9391 26.5786 24.9217 25.8284 24.1716C25.0783 23.4214 24.0609 23 23 23C21.9391 23 20.9217 23.4214 20.1716 24.1716C19.4214 24.9217 19 25.9391 19 27Z" stroke="#016DFF" stroke-width="1.5" stroke-linecap="round" stroke-linejoin="round"></path><path d="M20.3333 16.3333H25.6667" stroke="#016DFF" stroke-width="1.5" stroke-linecap="round" stroke-linejoin="round"></path><path d="M20.3333 31V36.3333L23 35L25.6667 36.3333V31" stroke="#016DFF" stroke-width="1.5" stroke-linecap="round" stroke-linejoin="round"></path><path d="M20.3333 32.3333H17.6667C16.9594 32.3333 16.2811 32.0524 15.781 31.5523C15.281 31.0522 15 30.3739 15 29.6667V13.6667C15 12.9594 15.281 12.2811 15.781 11.781C16.2811 11.281 16.9594 11 17.6667 11H28.3333C29.0406 11 29.7189 11.281 30.219 11.781C30.719 12.2811 31 12.9594 31 13.6667V29.6667C31 30.3739 30.719 31.0522 30.219 31.5523C29.7189 32.0524 29.0406 32.3333 28.3333 32.3333H25.6667" stroke="#016DFF" stroke-width="1.5" stroke-linecap="round" stroke-linejoin="round"></path></g><defs><clipPath id="clip0_2_230"><rect width="32" height="32" fill="white" transform="translate(7 7)"></rect></clipPath></defs></svg>