<svg xmlns="http://www.w3.org/2000/svg" width="46" height="46" viewBox="0 0 46 46" fill="none"><rect width="46" height="46" rx="10" fill="#EBF3FF"></rect><path d="M14.2933 19.0001C16.8707 19.0001 18.96 16.9107 18.96 14.3334C18.96 11.7561 16.8707 9.66675 14.2933 9.66675C11.716 9.66675 9.62668 11.7561 9.62668 14.3334C9.62668 16.9107 11.716 19.0001 14.2933 19.0001Z" stroke="#016DFF" stroke-width="1.5"></path><path d="M29.6267 27H33.6267C35.0933 27 36.2933 28.2 36.2933 29.6667V33.6667C36.2933 35.1333 35.0933 36.3333 33.6267 36.3333H29.6267C28.16 36.3333 26.96 35.1333 26.96 33.6667V29.6667C26.96 28.2 28.16 27 29.6267 27Z" stroke="#016DFF" stroke-width="1.5"></path><path d="M23 13.6667H26.5733C29.04 13.6667 30.1867 16.7201 28.3333 18.3467L17.68 27.6667C15.8267 29.2801 16.9733 32.3334 19.4267 32.3334H23" stroke="#016DFF" stroke-width="1.5" stroke-linecap="round" stroke-linejoin="round"></path><path d="M14.315 14.3334H14.3304" stroke="#016DFF" stroke-width="2" stroke-linecap="round" stroke-linejoin="round"></path><path d="M31.6483 31.6667H31.6637" stroke="#016DFF" stroke-width="2" stroke-linecap="round" stroke-linejoin="round"></path></svg>