<svg xmlns="http://www.w3.org/2000/svg" width="46" height="46" viewBox="0 0 46 46" fill="none"><rect width="46" height="46" rx="10" fill="#EBF3FF"></rect><g clip-path="url(#clip0_2_253)"><path d="M15 12.3333H13.6667C12.9594 12.3333 12.2811 12.6142 11.781 13.1143C11.281 13.6144 11 14.2927 11 14.9999V19.6666C11 21.6115 11.7726 23.4768 13.1479 24.852C14.5232 26.2273 16.3884 26.9999 18.3333 26.9999C20.2783 26.9999 22.1435 26.2273 23.5188 24.852C24.894 23.4768 25.6667 21.6115 25.6667 19.6666V14.9999C25.6667 14.2927 25.3857 13.6144 24.8856 13.1143C24.3855 12.6142 23.7072 12.3333 23 12.3333H21.6667" stroke="#016DFF" stroke-width="1.5" stroke-linecap="round" stroke-linejoin="round"></path><path d="M17.6667 27C17.6667 28.0506 17.8736 29.0909 18.2756 30.0615C18.6777 31.0321 19.2669 31.914 20.0098 32.6569C20.7527 33.3997 21.6346 33.989 22.6052 34.391C23.5758 34.7931 24.6161 35 25.6667 35C26.7172 35 27.7575 34.7931 28.7281 34.391C29.6987 33.989 30.5807 33.3997 31.3235 32.6569C32.0664 31.914 32.6557 31.0321 33.0577 30.0615C33.4597 29.0909 33.6667 28.0506 33.6667 27V23" stroke="#016DFF" stroke-width="1.5" stroke-linecap="round" stroke-linejoin="round"></path><path d="M21.6667 11V13.6667" stroke="#016DFF" stroke-width="1.5" stroke-linecap="round" stroke-linejoin="round"></path><path d="M15 11V13.6667" stroke="#016DFF" stroke-width="1.5" stroke-linecap="round" stroke-linejoin="round"></path><path d="M31 20.3334C31 21.0407 31.281 21.7189 31.781 22.219C32.2811 22.7191 32.9594 23.0001 33.6667 23.0001C34.3739 23.0001 35.0522 22.7191 35.5523 22.219C36.0524 21.7189 36.3333 21.0407 36.3333 20.3334C36.3333 19.6262 36.0524 18.9479 35.5523 18.4478C35.0522 17.9477 34.3739 17.6667 33.6667 17.6667C32.9594 17.6667 32.2811 17.9477 31.781 18.4478C31.281 18.9479 31 19.6262 31 20.3334Z" stroke="#016DFF" stroke-width="1.5" stroke-linecap="round" stroke-linejoin="round"></path></g><defs><clipPath id="clip0_2_253"><rect width="32" height="32" fill="white" transform="translate(7 7)"></rect></clipPath></defs></svg>