<svg xmlns="http://www.w3.org/2000/svg" width="16" height="16" viewBox="0 0 16 16" fill="none"><path d="M7.19454 0.490291C7.53255 -0.16343 8.46744 -0.16343 8.80544 0.490291L10.9578 4.65315C11.0441 4.81997 11.18 4.95589 11.3469 5.04214L15.5097 7.19454C16.1634 7.53255 16.1634 8.46744 15.5097 8.80544L11.3469 10.9578C11.18 11.0441 11.0441 11.18 10.9578 11.3469L8.80544 15.5097C8.46744 16.1634 7.53255 16.1634 7.19454 15.5097L5.04214 11.3469C4.95589 11.18 4.81997 11.0441 4.65315 10.9578L0.490291 8.80544C-0.16343 8.46744 -0.16343 7.53255 0.490291 7.19454L4.65315 5.04214C4.81997 4.95589 4.95589 4.81997 5.04214 4.65315L7.19454 0.490291Z" fill="#1B2C51"></path></svg>