<svg xmlns="http://www.w3.org/2000/svg" width="25" height="24" viewBox="0 0 25 24" fill="none"><path d="M12.5 23.75C12.3813 23.75 12.2688 23.7188 12.1687 23.6562C11.675 23.3438 0 15.875 0 7.1875C0 5.55 0.51875 4.01875 1.5 2.75625C1.7125 2.48125 2.10625 2.4375 2.375 2.64375C2.65 2.85625 2.7 3.25 2.4875 3.51875C1.675 4.5625 1.25 5.83125 1.25 7.1875C1.25 14.4062 10.6 21.0938 12.5 22.375C14.4 21.0875 23.75 14.4 23.75 7.1875C23.75 3.9125 21.1625 1.25 17.9813 1.25C15.825 1.25 13.9688 3.10625 13.0375 4.69375C12.8125 5.075 12.1812 5.075 11.9625 4.69375C11.0312 3.10625 9.175 1.25 7.01875 1.25C6.01875 1.25 5.0625 1.50625 4.18125 2.01875C1.5 4.25 1.675 4.05 1.5 3.75C1.325 3.45 0.5 3.25 3.55625 0.93125C4.63125 0.3125 5.79375 0 7.01875 0C9.33125 0 11.2688 1.55625 12.5 3.2375C13.7312 1.55625 15.6688 0 17.9813 0C21.85 0 25 3.225 25 7.1875C25 15.8688 13.3312 23.3375 12.8312 23.6562C12.7312 23.7188 12.6125 23.75 12.5 23.75Z" fill="#016DFF"></path></svg>