<svg xmlns="http://www.w3.org/2000/svg" width="14" height="9" viewBox="0 0 14 9" fill="none"><path d="M8.74375 8.74396C8.74375 8.74396 8.73125 8.74396 8.725 8.74396C8.48125 8.73771 8.2625 8.58771 8.16875 8.36271L5.56875 2.12521L4.30625 4.65646C4.2 4.86896 3.98125 5.00021 3.75 5.00021H0.625C0.28125 5.00021 0 4.71896 0 4.37521C0 4.03146 0.28125 3.75021 0.625 3.75021H3.3625L5.0625 0.343964C5.175 0.125214 5.40625 -0.00603634 5.64375 0.000213659C5.8875 0.00646366 6.10625 0.156463 6.2 0.381463L8.8 6.61896L10.0625 4.08771C10.1687 3.87521 10.3875 3.74396 10.6187 3.74396H13.1187C13.4625 3.74396 13.7437 4.02521 13.7437 4.36896C13.7437 4.71271 13.4625 4.99396 13.1187 4.99396H11.0062L9.30625 8.40021C9.2 8.61271 8.98125 8.74396 8.75 8.74396H8.74375Z" fill="#016DFF"></path></svg>