<svg xmlns="http://www.w3.org/2000/svg" width="14" height="14" viewBox="0 0 14 14" fill="none"><path d="M6.29523 0.429004C6.59098 -0.143001 7.40901 -0.143001 7.70476 0.429004L9.58811 4.07151C9.66357 4.21747 9.7825 4.3364 9.92852 4.41188L13.571 6.29523C14.143 6.59098 14.143 7.40901 13.571 7.70476L9.92852 9.58811C9.7825 9.66357 9.66357 9.7825 9.58811 9.92852L7.70476 13.571C7.40901 14.143 6.59098 14.143 6.29523 13.571L4.41188 9.92852C4.3364 9.7825 4.21747 9.66357 4.07151 9.58811L0.429004 7.70476C-0.143001 7.40901 -0.143001 6.59098 0.429004 6.29523L4.07151 4.41188C4.21747 4.3364 4.3364 4.21747 4.41188 4.07151L6.29523 0.429004Z" fill="#D7B8F3"></path></svg>